<?xml version="1.0" standalone="no"?>
<!DOCTYPE svg PUBLIC "-//W3C//DTD SVG 20010904//EN"
 "http://www.w3.org/TR/2001/REC-SVG-20010904/DTD/svg10.dtd">
<svg version="1.0" xmlns="http://www.w3.org/2000/svg"
 width="1024.000000pt" height="1024.000000pt" viewBox="0 0 1024.000000 1024.000000"
 preserveAspectRatio="xMidYMid meet">
<metadata>
Created by potrace 1.14, written by Peter Selinger 2001-2017
</metadata>
<g transform="translate(0.000000,1024.000000) scale(0.100000,-0.100000)"
fill="#000000" stroke="none">
<path d="M2743 10113 l-63 -4 0 -624 0 -624 153 6 c162 6 273 -4 401 -37 403
-103 661 -415 730 -883 22 -146 23 -847 1 -989 -43 -290 -128 -471 -300 -643
-115 -115 -202 -170 -354 -222 -147 -50 -274 -66 -468 -60 l-163 6 0 -623 0
-623 46 -7 c26 -3 59 -6 74 -6 24 0 82 -62 421 -444 l394 -445 988 0 c543 -1
987 2 987 7 0 4 -84 90 -186 192 -102 102 -365 367 -584 590 l-398 405 114 65
c297 168 580 438 754 719 288 464 426 1092 390 1774 -33 651 -192 1139 -503
1552 -85 113 -294 317 -413 404 -391 285 -883 451 -1479 500 -143 12 -454 20
-542 14z m364 -13 c1204 -59 1989 -537 2356 -1435 283 -689 283 -1724 2 -2425
-193 -482 -544 -878 -978 -1105 -42 -22 -77 -45 -77 -50 0 -6 81 -91 181 -190
99 -99 361 -363 581 -587 l400 -408 -974 0 -974 0 -394 445 c-377 425 -397
445 -430 445 -19 0 -52 3 -72 6 l-38 7 0 613 0 612 148 -5 c306 -12 557 57
753 205 202 154 337 405 384 717 21 141 21 868 0 1005 -82 539 -390 853 -900
921 -55 7 -147 10 -237 6 l-148 -5 0 613 0 614 58 4 c114 7 161 6 359 -3z"/>
<path d="M1675 9926 c-358 -128 -601 -274 -839 -505 -286 -279 -468 -593 -592
-1023 -132 -462 -156 -1117 -59 -1641 129 -697 469 -1225 998 -1554 165 -102
493 -246 610 -268 l37 -7 0 2521 c0 2394 -1 2521 -17 2520 -10 0 -72 -19 -138
-43z m145 -2476 c0 -1457 -4 -2510 -9 -2510 -5 0 -62 18 -127 41 -798 275
-1302 862 -1478 1719 -110 538 -91 1202 48 1698 58 205 163 449 263 612 212
343 502 602 878 787 132 64 378 161 413 162 9 1 12 -507 12 -2509z"/>
<path d="M6329 5203 c-12 -31 -318 -867 -499 -1363 -65 -179 -256 -703 -425
-1165 -169 -462 -351 -961 -405 -1110 -124 -341 -388 -1064 -474 -1299 -36
-99 -66 -184 -66 -188 0 -4 382 -8 849 -8 801 0 850 1 855 18 35 120 449 1518
511 1727 46 154 161 541 255 860 94 319 202 684 240 810 38 127 152 514 255
860 102 347 202 681 221 744 19 63 34 120 34 127 0 12 -113 14 -670 14 l-670
0 -11 -27z m1341 11 c0 -5 -1428 -4825 -1496 -5052 l-25 -82 -835 0 c-660 0
-834 3 -834 13 0 6 419 1163 932 2570 l933 2557 662 0 c365 0 663 -3 663 -6z"/>
<path d="M8060 3593 c-195 -663 -353 -1213 -353 -1222 1 -13 65 -245 109 -393
5 -16 -7 -18 -118 -20 l-123 -3 -172 -575 c-95 -316 -172 -576 -173 -577 0 -2
211 -3 470 -3 l470 0 11 -42 c6 -24 54 -187 107 -363 l97 -320 878 -3 c613 -1
877 1 877 8 0 11 -59 176 -320 890 -84 228 -203 555 -265 725 -214 585 -347
950 -462 1265 -63 173 -150 412 -193 530 -43 118 -153 420 -245 670 -92 250
-180 493 -197 540 -16 47 -33 88 -36 92 -4 4 -167 -536 -362 -1199z m1214
-1160 c467 -1281 851 -2334 854 -2340 3 -10 -173 -13 -862 -13 -814 0 -866 1
-874 17 -5 10 -56 174 -113 366 l-103 347 -463 0 c-255 0 -463 3 -463 8 0 4
75 260 167 570 l168 562 122 0 c68 0 123 3 123 8 0 4 -25 95 -56 202 -30 107
-56 202 -57 210 -1 19 696 2390 703 2390 3 0 387 -1047 854 -2327z"/>
</g>
</svg>
